<svg width="115" height="82" viewBox="0 0 115 82" fill="none" xmlns="http://www.w3.org/2000/svg">
<path d="M105.75 0H26.4375C24.1003 0 21.8588 0.783591 20.2061 2.17839C18.5535 3.57319 17.625 5.46495 17.625 7.4375V14.875H8.8125C6.47528 14.875 4.23379 15.6586 2.58112 17.0534C0.928457 18.4482 0 20.34 0 22.3125V74.375C0 76.3475 0.928457 78.2393 2.58112 79.6341C4.23379 81.0289 6.47528 81.8125 8.8125 81.8125H88.125C90.4622 81.8125 92.7037 81.0289 94.3564 79.6341C96.009 78.2393 96.9375 76.3475 96.9375 74.375V66.9375H105.75C108.087 66.9375 110.329 66.1539 111.981 64.7591C113.634 63.3643 114.562 61.4725 114.562 59.5V7.4375C114.562 5.46495 113.634 3.57319 111.981 2.17839C110.329 0.783591 108.087 0 105.75 0ZM26.4375 7.4375H105.75V36.6064L100.204 31.9301C99.3853 31.2393 98.4137 30.6913 97.3444 30.3174C96.2751 29.9436 95.129 29.7511 93.9715 29.7511C92.8141 29.7511 91.668 29.9436 90.5987 30.3174C89.5294 30.6913 88.5578 31.2393 87.7395 31.9301L76.7238 41.227L52.4895 20.7739C50.837 19.3801 48.5963 18.5972 46.2601 18.5972C43.9239 18.5972 41.6833 19.3801 40.0308 20.7739L26.4375 32.2462V7.4375ZM88.125 74.375H8.8125V22.3125H17.625V59.5C17.625 61.4725 18.5535 63.3643 20.2061 64.7591C21.8588 66.1539 24.1003 66.9375 26.4375 66.9375H88.125V74.375ZM105.75 59.5H26.4375V42.7656L46.2656 26.0312L73.6174 49.1154C74.4437 49.8123 75.564 50.2037 76.7321 50.2037C77.9002 50.2037 79.0205 49.8123 79.8468 49.1154L93.9798 37.1875L105.75 47.1259V59.5ZM74.9062 20.4531C74.9062 19.3499 75.2939 18.2714 76.0201 17.3541C76.7464 16.4368 77.7786 15.7218 78.9863 15.2996C80.194 14.8774 81.523 14.7669 82.805 14.9822C84.0871 15.1974 85.2648 15.7287 86.1892 16.5088C87.1135 17.2889 87.743 18.2828 87.998 19.3649C88.253 20.4469 88.1221 21.5685 87.6219 22.5878C87.1216 23.6071 86.2745 24.4782 85.1876 25.0912C84.1007 25.7041 82.8228 26.0312 81.5156 26.0312C79.7627 26.0312 78.0816 25.4436 76.8421 24.3975C75.6026 23.3514 74.9062 21.9325 74.9062 20.4531Z" fill="#2E3F50"/>
</svg>
