<svg width="244" height="245" viewBox="0 0 244 245" fill="none" xmlns="http://www.w3.org/2000/svg">
<path d="M225.861 122.5C236.431 122.5 245.153 131.12 243.508 141.562C239.811 165.03 229.341 187.066 213.185 204.856C192.712 227.399 164.576 241.509 134.265 244.434C103.953 247.358 73.6392 238.888 49.2339 220.675C24.8286 202.462 8.08198 175.811 2.25978 145.921C-3.56242 116.03 1.95724 85.0429 17.7424 59.0012C33.5275 32.9596 58.4464 13.7309 87.6395 5.06491C116.833 -3.60104 148.207 -1.08292 175.644 12.1282C197.297 22.554 215.272 39.0494 227.507 59.414C232.951 68.4746 228.102 79.7384 218.305 83.7056C208.507 87.6728 197.509 82.7653 191.436 74.1138C183.225 62.4148 172.105 52.9079 159.038 46.616C140.174 37.533 118.604 35.8017 98.5324 41.7598C78.4612 47.7179 61.3287 60.9382 50.4759 78.8427C39.6232 96.7471 35.8282 118.052 39.8312 138.603C43.8341 159.153 55.3479 177.476 72.1273 189.998C88.9067 202.52 109.749 208.344 130.589 206.333C151.429 204.322 170.773 194.622 184.849 179.122C194.599 168.386 201.337 155.401 204.557 141.475C206.939 131.177 215.291 122.5 225.861 122.5Z" fill="url(#paint0_angular_789_288)"/>
<defs>
<radialGradient id="paint0_angular_789_288" cx="0" cy="0" r="1" gradientUnits="userSpaceOnUse" gradientTransform="translate(122.5 122.5) scale(122.5)">
<stop stop-color="#2E3F50"/>
<stop offset="0.60123" stop-color="#557493"/>
<stop offset="1" stop-color="white"/>
</radialGradient>
</defs>
</svg>
