<svg width="245" height="246" viewBox="0 0 245 246" fill="none" xmlns="http://www.w3.org/2000/svg">
<path d="M229.197 123C238.477 123 246.118 115.442 244.854 106.249C241.493 81.7966 230.827 58.7783 214.06 40.3139C193.507 17.6793 165.261 3.51054 134.829 0.570157C104.397 -2.37023 73.9611 6.12854 49.4548 24.4094C24.9485 42.6903 8.12885 69.4428 2.27534 99.451C-3.57816 129.459 1.95404 160.572 17.7933 186.722C33.6326 212.873 58.6435 232.188 87.9496 240.9C117.256 249.613 148.756 247.098 176.309 233.847C198.786 223.038 217.321 205.716 229.626 184.319C234.252 176.275 230.011 166.4 221.412 162.912V162.912C212.812 159.424 203.137 163.689 198.104 171.485C189.229 185.233 176.684 196.377 161.744 203.562C141.719 213.193 118.825 215.02 97.5259 208.688C76.2267 202.356 58.0492 188.319 46.5374 169.313C35.0257 150.306 31.005 127.694 35.2592 105.885C39.5134 84.0755 51.7377 64.6322 69.5485 51.3459C87.3593 38.0596 109.48 31.8829 131.597 34.0199C153.715 36.1569 174.244 46.4545 189.181 62.905C200.326 75.1783 207.762 90.22 210.82 106.296C212.554 115.412 219.917 123 229.197 123V123Z" fill="url(#paint0_linear_778_288)"/>
<defs>
<linearGradient id="paint0_linear_778_288" x1="228" y1="74.5" x2="270" y2="161.5" gradientUnits="userSpaceOnUse">
<stop offset="0.39" stop-color="#2E3F50"/>
<stop offset="0.59" stop-color="#55697C"/>
<stop offset="0.963014" stop-color="white"/>
</linearGradient>
</defs>
</svg>
