<svg width="14" height="14" viewBox="0 0 14 14" fill="none" xmlns="http://www.w3.org/2000/svg">
<path d="M7.00016 0.333252C3.3335 0.333252 0.333496 3.33325 0.333496 6.99992C0.333496 10.6666 3.3335 13.6666 7.00016 13.6666C10.6668 13.6666 13.6668 10.6666 13.6668 6.99992C13.6668 3.33325 10.6668 0.333252 7.00016 0.333252ZM7.00016 12.3333C4.06016 12.3333 1.66683 9.93992 1.66683 6.99992C1.66683 4.05992 4.06016 1.66659 7.00016 1.66659C9.94016 1.66659 12.3335 4.05992 12.3335 6.99992C12.3335 9.93992 9.94016 12.3333 7.00016 12.3333ZM10.0602 4.05325L5.66683 8.44658L3.94016 6.72659L3.00016 7.66658L5.66683 10.3333L11.0002 4.99992L10.0602 4.05325Z" fill="#2D8417"/>
</svg>
