<svg width="144" height="103" viewBox="0 0 144 103" fill="none" xmlns="http://www.w3.org/2000/svg">
<rect x="0.5" y="0.5" width="143" height="102" stroke="white"/>
<path d="M135 54.7188V80.4688C135 82.1761 134.052 83.8135 132.364 85.0208C130.676 86.228 128.387 86.9063 126 86.9063H18C15.6131 86.9063 13.3239 86.228 11.636 85.0208C9.94821 83.8135 9 82.1761 9 80.4688V54.7188C9 53.0114 9.94821 51.374 11.636 50.1668C13.3239 48.9595 15.6131 48.2813 18 48.2813H45C46.1935 48.2813 47.3381 48.6204 48.182 49.224C49.0259 49.8277 49.5 50.6464 49.5 51.5C49.5 52.3537 49.0259 53.1724 48.182 53.776C47.3381 54.3797 46.1935 54.7188 45 54.7188H18V80.4688H126V54.7188H99C97.8065 54.7188 96.6619 54.3797 95.818 53.776C94.9741 53.1724 94.5 52.3537 94.5 51.5C94.5 50.6464 94.9741 49.8277 95.818 49.224C96.6619 48.6204 97.8065 48.2813 99 48.2813H126C128.387 48.2813 130.676 48.9595 132.364 50.1668C134.052 51.374 135 53.0114 135 54.7188ZM48.1838 31.246L67.5 17.4255V51.5C67.5 52.3537 67.9741 53.1724 68.818 53.776C69.6619 54.3797 70.8065 54.7188 72 54.7188C73.1935 54.7188 74.3381 54.3797 75.182 53.776C76.0259 53.1724 76.5 52.3537 76.5 51.5V17.4255L95.8162 31.246C96.6606 31.85 97.8059 32.1893 99 32.1893C100.194 32.1893 101.339 31.85 102.184 31.246C103.028 30.6421 103.503 29.8229 103.503 28.9688C103.503 28.1146 103.028 27.2955 102.184 26.6915L75.1838 7.37901C74.7658 7.07975 74.2695 6.84233 73.7232 6.68035C73.1769 6.51837 72.5914 6.435 72 6.435C71.4086 6.435 70.8231 6.51837 70.2768 6.68035C69.7305 6.84233 69.2342 7.07975 68.8162 7.37901L41.8162 26.6915C40.9719 27.2955 40.4975 28.1146 40.4975 28.9688C40.4975 29.8229 40.9719 30.6421 41.8163 31.246C42.6606 31.85 43.8059 32.1893 45 32.1893C46.1941 32.1893 47.3394 31.85 48.1838 31.246ZM112.5 67.5938C112.5 66.6389 112.104 65.7054 111.362 64.9114C110.621 64.1174 109.567 63.4986 108.333 63.1332C107.1 62.7677 105.743 62.6721 104.433 62.8584C103.124 63.0447 101.921 63.5045 100.977 64.1798C100.033 64.855 99.3901 65.7153 99.1297 66.6519C98.8692 67.5884 99.0029 68.5592 99.5138 69.4414C100.025 70.3236 100.89 71.0777 102 71.6082C103.11 72.1387 104.415 72.4219 105.75 72.4219C107.54 72.4219 109.257 71.9132 110.523 71.0078C111.789 70.1023 112.5 68.8743 112.5 67.5938Z" fill="#9A9999"/>
</svg>
