<svg width="144" height="116" viewBox="0 0 144 116" fill="none" xmlns="http://www.w3.org/2000/svg">
<path d="M135 61.625V90.625C135 92.5479 134.052 94.3919 132.364 95.7516C130.676 97.1112 128.387 97.875 126 97.875H18C15.6131 97.875 13.3239 97.1112 11.636 95.7516C9.94821 94.3919 9 92.5479 9 90.625V61.625C9 59.7022 9.94821 57.8582 11.636 56.4985C13.3239 55.1389 15.6131 54.375 18 54.375H45C46.1935 54.375 47.3381 54.757 48.182 55.4368C49.0259 56.1166 49.5 57.0386 49.5 58C49.5 58.9615 49.0259 59.8835 48.182 60.5633C47.3381 61.2431 46.1935 61.625 45 61.625H18V90.625H126V61.625H99C97.8065 61.625 96.6619 61.2431 95.818 60.5633C94.9741 59.8835 94.5 58.9615 94.5 58C94.5 57.0386 94.9741 56.1166 95.818 55.4368C96.6619 54.757 97.8065 54.375 99 54.375H126C128.387 54.375 130.676 55.1389 132.364 56.4985C134.052 57.8582 135 59.7022 135 61.625ZM48.1838 35.1897L67.5 19.6249V58C67.5 58.9615 67.9741 59.8835 68.818 60.5633C69.6619 61.2431 70.8065 61.625 72 61.625C73.1935 61.625 74.3381 61.2431 75.182 60.5633C76.0259 59.8835 76.5 58.9615 76.5 58V19.6249L95.8162 35.1897C96.6606 35.8699 97.8059 36.2521 99 36.2521C100.194 36.2521 101.339 35.8699 102.184 35.1897C103.028 34.5095 103.503 33.587 103.503 32.625C103.503 31.6631 103.028 30.7406 102.184 30.0604L75.1838 8.31036C74.7658 7.97332 74.2695 7.70594 73.7232 7.52351C73.1769 7.34109 72.5914 7.24719 72 7.24719C71.4086 7.24719 70.8231 7.34109 70.2768 7.52351C69.7305 7.70594 69.2342 7.97332 68.8162 8.31036L41.8162 30.0604C40.9719 30.7406 40.4975 31.6631 40.4975 32.625C40.4975 33.587 40.9719 34.5095 41.8163 35.1897C42.6606 35.8699 43.8059 36.2521 45 36.2521C46.1941 36.2521 47.3394 35.8699 48.1838 35.1897ZM112.5 76.125C112.5 75.0496 112.104 73.9983 111.362 73.1041C110.621 72.2099 109.567 71.513 108.333 71.1014C107.1 70.6899 105.743 70.5822 104.433 70.792C103.124 71.0018 101.921 71.5197 100.977 72.2802C100.033 73.0406 99.3902 74.0095 99.1297 75.0642C98.8692 76.119 99.0029 77.2123 99.5138 78.2059C100.025 79.1995 100.89 80.0487 102 80.6462C103.11 81.2436 104.415 81.5625 105.75 81.5625C107.54 81.5625 109.257 80.9897 110.523 79.9699C111.789 78.9502 112.5 77.5672 112.5 76.125Z" fill="#2E3F50"/>
</svg>
